<svg width="41" height="40" viewBox="0 0 41 40" fill="none" xmlns="http://www.w3.org/2000/svg">
<ellipse cx="21.5" cy="20" rx="17.5" ry="17" fill="#FFF0E8"/>
<path fill-rule="evenodd" clip-rule="evenodd" d="M21.393 2C11.153 2 2.83984 10.14 2.83984 20.1667C2.83984 30.1933 11.153 38.3333 21.393 38.3333C31.633 38.3333 39.9462 30.1933 39.9462 20.1667C39.9462 10.14 31.633 2 21.393 2ZM21.393 4.99998C29.9411 4.99998 36.8824 11.7967 36.8824 20.1667C36.8824 28.5367 29.9411 35.3333 21.393 35.3333C12.845 35.3333 5.90368 28.5367 5.90368 20.1667C5.90368 11.7967 12.845 4.99998 21.393 4.99998Z" fill="#BB612D"/>
<path d="M15.8386 18.2873C16.7591 18.2873 17.5052 17.5412 17.5052 16.6208C17.5052 15.7004 16.7591 14.9543 15.8386 14.9543C14.9181 14.9543 14.1719 15.7004 14.1719 16.6208C14.1719 17.5412 14.9181 18.2873 15.8386 18.2873Z" fill="#BB612D"/>
<path d="M26.3203 18.2873C27.2407 18.2873 27.9869 17.5412 27.9869 16.6208C27.9869 15.7004 27.2407 14.9543 26.3203 14.9543C25.3998 14.9543 24.6536 15.7004 24.6536 16.6208C24.6536 17.5412 25.3998 18.2873 26.3203 18.2873Z" fill="#BB612D"/>
<path fill-rule="evenodd" clip-rule="evenodd" d="M27.1033 22.735C26.0466 25.1467 23.6399 26.8334 20.8399 26.8334C18.0399 26.8334 15.6333 25.1467 14.5766 22.735C14.2449 21.9767 13.3583 21.63 12.5999 21.9634C11.8416 22.295 11.4966 23.1801 11.8283 23.9384C13.3483 27.4084 16.8133 29.8334 20.8399 29.8334C24.8666 29.8334 28.3316 27.4084 29.8516 23.9384C30.1833 23.1801 29.8383 22.295 29.0799 21.9634C28.3216 21.63 27.4349 21.9767 27.1033 22.735Z" fill="#BB612D"/>
</svg>
