<svg width="40" height="40" viewBox="0 0 40 40" fill="none" xmlns="http://www.w3.org/2000/svg">
<circle cx="20.5" cy="20.5" r="17.5" fill="#FFF0E8"/>
<path fill-rule="evenodd" clip-rule="evenodd" d="M20.5532 2C10.3132 2 2 10.14 2 20.1667C2 30.1933 10.3132 38.3333 20.5532 38.3333C30.7932 38.3333 39.1064 30.1933 39.1064 20.1667C39.1064 10.14 30.7932 2 20.5532 2ZM20.5532 4.99998C29.1013 4.99998 36.0426 11.7967 36.0426 20.1667C36.0426 28.5367 29.1013 35.3333 20.5532 35.3333C12.0051 35.3333 5.06384 28.5367 5.06384 20.1667C5.06384 11.7967 12.0051 4.99998 20.5532 4.99998Z" fill="#BB612D"/>
<path d="M14.9987 18.2873C15.9192 18.2873 16.6653 17.5412 16.6653 16.6208C16.6653 15.7004 15.9192 14.9543 14.9987 14.9543C14.0783 14.9543 13.332 15.7004 13.332 16.6208C13.332 17.5412 14.0783 18.2873 14.9987 18.2873Z" fill="#BB612D"/>
<path d="M25.4804 18.2873C26.4009 18.2873 27.147 17.5412 27.147 16.6208C27.147 15.7004 26.4009 14.9543 25.4804 14.9543C24.56 14.9543 23.8137 15.7004 23.8137 16.6208C23.8137 17.5412 24.56 18.2873 25.4804 18.2873Z" fill="#BB612D"/>
</svg>
