<svg width="26" height="26" viewBox="0 0 26 26" fill="none" xmlns="http://www.w3.org/2000/svg">
<path d="M25.2418 13.7172C25.2944 13.6511 25.2042 13.7927 25.2418 13.7172C25.2827 13.6144 25.9591 13.1085 25.9609 12.998C25.9577 12.8918 26.0003 13.0966 25.9609 12.998L25.2418 12.2788C25.2278 12.1739 25.2958 12.3697 25.2418 12.2788C25.1874 12.205 25.3156 12.3332 25.2418 12.2788L10.1392 4.36795C9.96776 4.2814 8.89064 4.33745 8.70088 4.36795C8.51112 4.39845 8.83684 4.23199 8.70088 4.36795C8.56491 4.50391 8.01221 4.89736 7.98171 5.08712C7.9512 5.27688 8.61433 5.63483 8.70088 5.80629L11.5776 12.998L8.70088 20.1897C8.61411 20.3612 7.95144 20.7191 7.98171 20.9088C8.01197 21.0986 8.56508 21.4922 8.70087 21.628C8.51115 21.5978 8.83667 21.7638 8.70087 21.628C8.8906 21.6583 9.96765 21.7148 10.1392 21.628L25.2418 13.7172C25.3131 13.6745 25.1846 13.7774 25.2418 13.7172ZM20.9268 12.2788L13.7351 12.2788L11.5776 7.24463L20.9268 12.2788ZM11.5776 18.7513L13.7351 13.7172H20.9268L11.5776 18.7513Z" fill="#262519" fill-opacity="0.5"/>
</svg>
