<svg width="41" height="40" viewBox="0 0 41 40" fill="none" xmlns="http://www.w3.org/2000/svg">
<circle cx="21" cy="20" r="17" fill="#FFF0E8"/>
<path fill-rule="evenodd" clip-rule="evenodd" d="M20.8618 2C10.8266 2 2.67969 10.14 2.67969 20.1667C2.67969 30.1933 10.8266 38.3333 20.8618 38.3333C30.897 38.3333 39.0439 30.1933 39.0439 20.1667C39.0439 10.14 30.897 2 20.8618 2ZM20.8618 4.99998C29.2389 4.99998 36.0414 11.7967 36.0414 20.1667C36.0414 28.5367 29.2389 35.3333 20.8618 35.3333C12.4847 35.3333 5.68225 28.5367 5.68225 20.1667C5.68225 11.7967 12.4847 4.99998 20.8618 4.99998Z" fill="#BB612D"/>
<path fill-rule="evenodd" clip-rule="evenodd" d="M11.5129 20.1666C10.6846 20.1666 10.0129 20.8383 10.0129 21.6666C10.0129 27.5533 14.7929 32.3333 20.6796 32.3333C26.5663 32.3333 31.3463 27.5533 31.3463 21.6666C31.3463 20.8383 30.6746 20.1666 29.8463 20.1666H11.5129ZM28.1996 23.1666H13.1596C13.8579 26.6816 16.9613 29.3333 20.6796 29.3333C24.3979 29.3333 27.5013 26.6816 28.1996 23.1666Z" fill="#BB612D"/>
<path fill-rule="evenodd" clip-rule="evenodd" d="M11.8931 16.6217C11.8931 16.6217 12.3281 16.0333 13.0097 15.5933C13.3631 15.365 13.7931 15.1583 14.2781 15.2083C14.8764 15.2733 15.4747 15.7167 16.1331 16.6217C16.6197 17.2917 17.5581 17.4417 18.2281 16.955C18.8981 16.4683 19.0464 15.5283 18.5597 14.8583C17.2164 13.01 15.8164 12.355 14.5947 12.225C13.3797 12.0967 12.2697 12.5017 11.3847 13.0717C10.2081 13.83 9.4664 14.8583 9.4664 14.8583C8.97973 15.5283 9.12806 16.4683 9.79806 16.955C10.4681 17.4417 11.4064 17.2917 11.8931 16.6217Z" fill="#BB612D"/>
<path fill-rule="evenodd" clip-rule="evenodd" d="M31.893 14.9966C31.893 14.9966 31.1513 13.9683 29.9747 13.21C29.0897 12.64 27.9796 12.235 26.7646 12.3633C25.543 12.4933 24.143 13.1483 22.7997 14.9966C22.313 15.6666 22.4613 16.6067 23.1313 17.0933C23.8013 17.58 24.7396 17.43 25.2263 16.76C25.8846 15.855 26.483 15.4116 27.0813 15.3466C27.5663 15.2966 27.9963 15.5033 28.3496 15.7316C29.0313 16.1716 29.4663 16.76 29.4663 16.76C29.953 17.43 30.8913 17.58 31.5613 17.0933C32.2313 16.6067 32.3796 15.6666 31.893 14.9966Z" fill="#BB612D"/>
</svg>
