<svg width="14" height="11" viewBox="0 0 14 11" fill="none" xmlns="http://www.w3.org/2000/svg">
<path d="M4.12 0C1.89531 0 0 1.5774 0 3.62605C0 5.03933 0.697877 6.22917 1.62279 7.21481C2.54453 8.19705 3.73372 9.02153 4.80878 9.71159L6.66367 10.9022C6.86681 11.0326 7.13319 11.0326 7.33633 10.9022L9.19122 9.71159C10.2663 9.02153 11.4555 8.19705 12.3772 7.21481C13.3021 6.22917 14 5.03933 14 3.62605C14 1.5774 12.1047 0 9.88 0C8.73322 0 7.72413 0.509898 7 1.16967C6.27587 0.509898 5.26678 0 4.12 0Z" fill="#FF8C4A"/>
</svg>
