<svg width="64" height="64" viewBox="0 0 64 64" fill="none" xmlns="http://www.w3.org/2000/svg">
<rect width="64" height="64" rx="32" fill="#FF8C4A"/>
<path fill-rule="evenodd" clip-rule="evenodd" d="M32.5 14C22.2894 14 13.5 22.0653 13.5 32C13.5 41.9347 22.2894 50 32.5 50C42.7106 50 50.5 41.9347 50.5 32C50.5 22.0653 42.7106 14 32.5 14ZM32.5 17C41.0236 17 47.5 23.7068 47.5 32C47.5 40.2932 41.0236 47 32.5 47C23.9764 47 16.5 40.2932 16.5 32C16.5 23.7068 23.9764 17 32.5 17Z" fill="white"/>
<path d="M26.9988 30.2873C27.9193 30.2873 28.6654 29.5412 28.6654 28.6208C28.6654 27.7004 27.9193 26.9543 26.9988 26.9543C26.0783 26.9543 25.3321 27.7004 25.3321 28.6208C25.3321 29.5412 26.0783 30.2873 26.9988 30.2873Z" fill="white"/>
<path d="M37.1667 30.3329C38.0872 30.3329 38.8333 29.5868 38.8333 28.6665C38.8333 27.7461 38.0872 27 37.1667 27C36.2462 27 35.5 27.7461 35.5 28.6665C35.5 29.5868 36.2462 30.3329 37.1667 30.3329Z" fill="white"/>
<path fill-rule="evenodd" clip-rule="evenodd" d="M38.5 35C37.4134 37.3838 35.3794 39 32.5 39C29.6206 39 26.5867 37.3838 25.5 35C25.159 34.2505 24.2799 33.6705 23.5 34C22.7202 34.3278 22.159 35.2505 22.5 36C24.0631 39.4299 28.3592 42 32.5 42C36.6409 42 39.9369 39.4299 41.5 36C41.8411 35.2505 41.2799 34.3278 40.5 34C39.7202 33.6705 38.8411 34.2505 38.5 35Z" fill="white"/>
</svg>
