<svg width="52" height="26" viewBox="0 0 52 26" fill="none" xmlns="http://www.w3.org/2000/svg">
<rect x="5" y="5" width="13" height="11" fill="#FF8C4A"/>
<rect x="17" y="5" width="2" height="3" fill="#FF8C4A"/>
<rect x="17" y="12" width="2" height="3" fill="#FF8C4A"/>
<path d="M4.09194 1.09024C3.79939 1.09024 3.2988 0.887196 3.09194 1.09024C2.88508 1.29329 3.09194 1.80309 3.09194 2.09024V24.0902C3.09194 24.3774 2.88508 24.8872 3.09194 25.0902C3.2988 25.2933 3.79939 25.0902 4.09194 25.0902C4.38448 25.0902 4.88508 25.2933 5.09194 25.0902C5.2988 24.8872 5.09194 24.3774 5.09194 24.0902V16.0902H22.0919C21.916 16.1988 22.2998 16.0903 22.0919 16.0902C22.2679 15.9817 23.0019 16.2741 23.0919 16.0902C23.182 15.9064 23.1155 15.2929 23.0919 15.0902C23.0684 14.8875 23.2218 14.2495 23.0919 14.0902L19.0919 10.0902L23.0919 5.09024C23.2218 4.93098 23.0684 4.29294 23.0919 4.09024C23.182 4.27412 23.1155 3.88754 23.0919 4.09024C23.0019 3.90636 22.2679 3.19882 22.0919 3.09024C22.2998 3.09017 21.916 2.98167 22.0919 3.09024H5.09194V2.09024C5.09194 1.80309 5.2988 1.29329 5.09194 1.09024C4.88508 0.887196 4.38448 1.09024 4.09194 1.09024ZM20.0919 5.09024L17.0919 9.09024C16.9353 9.28227 16.0919 9.84425 16.0919 10.0902C16.0919 10.3362 16.9353 9.89821 17.0919 10.0902L20.0919 14.0902H5.09194V5.09024H20.0919Z" fill="#FF8C4A"/>
<path d="M32.5071 7.50708L37.3846 12.528" stroke="#FFBC96" stroke-width="2.44016" stroke-linecap="round"/>
<path d="M32.5071 18.5071L37.3846 13.4861" stroke="#FFBC96" stroke-width="2.44016" stroke-linecap="round"/>
<path d="M40.8248 7.50708L45.6058 12.62" stroke="#FFBC96" stroke-width="2.44016" stroke-linecap="round"/>
<path d="M39.8248 18.5071L44.6058 13.3942" stroke="#FFBC96" stroke-width="2.44016" stroke-linecap="round"/>
</svg>
